# xmcd
#
# Track frame offsets:
# 150
# 31528
# 45212
# 60694
# 73137
# 87009
# 98010
# 115339
# 130059
# 149159
# 166882
# 182689
# 197237
# 213950
# 229813
# 244358
# 258807
# 273068
# 285441
# 301130
#
# Disc length: 4195 seconds
#
#
# Revision: 0
# Processed by: cddbd v1.5.2PL0 Copyright (c) Steve Scherf et al.
# Submitted via: FreeRIP 2.96 
#
DISCID=11106114
DTITLE=Bosshoss - Stallion Batallion
DYEAR=2007
DGENRE=Country
TTITLE0=Stallion Batallion Interview
TTITLE1=Jumpin around
TTITLE2=Drop it like it´s hot
TTITLE3=High
TTITLE4=Truck´n´Roll Rules
TTITLE5=Gay Bar
TTITLE6=Goodbye Mary
TTITLE7=Everything counts
TTITLE8=Omniscient Lover
TTITLE9=Polk Salad Annie
TTITLE10=Free love on a free love free way
TTITLE11=Jose´and Myling
TTITLE12=Shake and shout
TTITLE13=Monkey Business
TTITLE14=Stallion Batallion
TTITLE15=Come on Krupa
TTITLE16=I say a little prayer (Campfire mix)
TTITLE17=Hell Yeah
TTITLE18=You´ll never walk alone
TTITLE19=I say a little prayer (Single)
EXTD=
EXTT0=
EXTT1=
EXTT2=
EXTT3=
EXTT4=
EXTT5=
EXTT6=
EXTT7=
EXTT8=
EXTT9=
EXTT10=
EXTT11=
EXTT12=
EXTT13=
EXTT14=
EXTT15=
EXTT16=
EXTT17=
EXTT18=
EXTT19=
PLAYORDER=
